<svg width="25" height="26" viewBox="0 0 25 26" fill="none" xmlns="http://www.w3.org/2000/svg">
<path d="M12.5008 0.395805C5.59488 0.395805 0 6.13643 0 13.2115C0 18.8768 3.58147 23.6787 8.54507 25.3728C9.17245 25.4937 9.39903 25.0972 9.39903 24.7544C9.39903 24.4501 9.39199 23.6451 9.38731 22.5766C5.90818 23.3487 5.17532 20.8537 5.17532 20.8537C4.60576 19.3766 3.78383 18.9802 3.78383 18.9802C2.65251 18.188 3.87368 18.2048 3.87368 18.2048C5.12688 18.2921 5.7863 19.5224 5.7863 19.5224C6.90121 21.4832 8.71148 20.9161 9.42793 20.5861C9.53732 19.7603 9.86312 19.1924 10.2178 18.876C7.44265 18.5548 4.5245 17.4535 4.5245 12.5427C4.5245 11.1402 5.00891 9.99796 5.80974 9.10086C5.67145 8.77967 5.24798 7.47407 5.9199 5.70871C5.9199 5.70871 6.96606 5.36669 9.35762 7.02312C10.3585 6.73877 11.421 6.597 12.4828 6.58979C13.5454 6.597 14.6072 6.73957 15.608 7.02312C17.9855 5.36669 19.0309 5.70871 19.0309 5.70871C19.702 7.47407 19.2785 8.77887 19.1567 9.10086C19.9497 9.99796 20.4341 11.141 20.4341 12.5427C20.4341 17.4647 17.512 18.55 14.7337 18.8632C15.1681 19.2469 15.5752 20.0359 15.5752 21.2333C15.5752 22.9474 15.5596 24.3283 15.5596 24.7456C15.5596 25.0788 15.7783 25.4793 16.4221 25.3504C21.4224 23.6739 25 18.868 25 13.2107C25 6.13563 19.4051 0.395004 12.4992 0.395004L12.5008 0.395805Z" fill="#918E9B"/>
</svg>
